<?xml version="1.0" encoding="UTF-8" standalone="no"?>
<!-- Created with Inkscape (http://www.inkscape.org/) -->

<svg
   width="413.04013"
   height="73.300323"
   viewBox="0 0 109.28353 19.394044"
   version="1.1"
   id="svg5"
   inkscape:version="1.2 (dc2aedaf03, 2022-05-15)"
   sodipodi:docname="TTO LOGO.svg"
   xml:space="preserve"
   xmlns:inkscape="http://www.inkscape.org/namespaces/inkscape"
   xmlns:sodipodi="http://sodipodi.sourceforge.net/DTD/sodipodi-0.dtd"
   xmlns="http://www.w3.org/2000/svg"
   xmlns:svg="http://www.w3.org/2000/svg"><sodipodi:namedview
     id="namedview7"
     pagecolor="#ffffff"
     bordercolor="#ffffff"
     borderopacity="1"
     inkscape:showpageshadow="0"
     inkscape:pageopacity="0"
     inkscape:pagecheckerboard="false"
     inkscape:deskcolor="#ffffff"
     inkscape:document-units="px"
     showgrid="false"
     showborder="false"
     inkscape:zoom="2.0056521"
     inkscape:cx="403.85868"
     inkscape:cy="2047.4638"
     inkscape:window-width="1600"
     inkscape:window-height="837"
     inkscape:window-x="-8"
     inkscape:window-y="-8"
     inkscape:window-maximized="1"
     inkscape:current-layer="layer1"
     showguides="true" /><defs
     id="defs2"><filter
       inkscape:collect="always"
       style="color-interpolation-filters:sRGB"
       id="filter4796"
       x="-0.091578029"
       y="-0.090912879"
       width="1.1831568"
       height="1.1496634"><feGaussianBlur
         inkscape:collect="always"
         stdDeviation="0.31380073"
         id="feGaussianBlur4798" /></filter></defs><g
     inkscape:label="Layer 1"
     inkscape:groupmode="layer"
     id="layer1"
     transform="translate(-58.77866,-516.13226)"><g
       id="g5021"><text
         xml:space="preserve"
         style="font-style:normal;font-variant:normal;font-weight:600;font-stretch:normal;font-size:11.2889px;line-height:0;font-family:Montserrat;-inkscape-font-specification:'Montserrat Semi-Bold';letter-spacing:-0.436562px;word-spacing:-0.552979px;fill:#ffffff;stroke-width:0.47497"
         x="82.643677"
         y="526.1441"
         id="text1740"><tspan
           id="tspan1738"
           style="font-style:normal;font-variant:normal;font-weight:600;font-stretch:normal;font-size:11.2889px;font-family:Montserrat;-inkscape-font-specification:'Montserrat Semi-Bold';fill:#ffffff;stroke-width:0.47497"
           x="82.643677"
           y="526.1441"
           dx="0"
           dy="2.9081681"
           sodipodi:role="line">The Talking Owl</tspan></text><g
         id="g4983"
         transform="translate(33.021374,-3.3581058)"><g
           id="g4794"
           style="mix-blend-mode:normal;stroke:#000000;stroke-width:1.56104;stroke-dasharray:none;stroke-opacity:0.615686;filter:url(#filter4796)"
           transform="translate(-1.1213049,-0.59362591)"><path
             style="fill:none;fill-opacity:1;stroke:#000000;stroke-width:1.56104;stroke-linecap:butt;stroke-linejoin:round;stroke-dasharray:none;stroke-opacity:0.615686"
             id="path4782"
             sodipodi:type="arc"
             sodipodi:cx="523.89191"
             sodipodi:cy="88.224907"
             sodipodi:rx="8.3757277"
             sodipodi:ry="8.3757277"
             sodipodi:start="0.54188799"
             sodipodi:end="6.2078264"
             sodipodi:open="true"
             sodipodi:arc-type="arc"
             d="m 531.0677,92.544725 a 8.3757277,8.3757277 0 0 1 -10.34136,3.434664 8.3757277,8.3757277 0 0 1 -4.98332,-9.690572 8.3757277,8.3757277 0 0 1 8.80949,-6.413546 8.3757277,8.3757277 0 0 1 7.69135,7.719047"
             transform="rotate(76.470218)" /><path
             style="fill:none;stroke:#000000;stroke-width:1.56104;stroke-linecap:round;stroke-linejoin:miter;stroke-dasharray:none;stroke-opacity:0.615686"
             d="m 32.028145,531.47052 h 9.822044"
             id="path4784" /><path
             style="fill:none;stroke:#000000;stroke-width:1.56104;stroke-linecap:butt;stroke-linejoin:miter;stroke-dasharray:none;stroke-opacity:0.615686"
             d="m 34.633452,531.40799 v 7.07902"
             id="path4786"
             sodipodi:nodetypes="cc" /><path
             style="fill:none;stroke:#000000;stroke-width:1.56104;stroke-linecap:butt;stroke-linejoin:miter;stroke-dasharray:none;stroke-opacity:0.615686"
             d="m 38.993778,531.47052 v 6.99737"
             id="path4788" /></g><g
           id="g4804"><path
             style="fill:none;fill-opacity:1;stroke:#ffffff;stroke-width:1.05833;stroke-linecap:butt;stroke-linejoin:round;stroke-dasharray:none;stroke-opacity:1"
             id="path4699"
             sodipodi:type="arc"
             sodipodi:cx="523.05243"
             sodipodi:cy="89.176216"
             sodipodi:rx="8.3757277"
             sodipodi:ry="8.3757277"
             sodipodi:start="0.54188799"
             sodipodi:end="6.2078264"
             sodipodi:open="true"
             sodipodi:arc-type="arc"
             d="m 530.22822,93.496035 a 8.3757277,8.3757277 0 0 1 -10.34136,3.434663 8.3757277,8.3757277 0 0 1 -4.98332,-9.690572 8.3757277,8.3757277 0 0 1 8.80949,-6.413546 8.3757277,8.3757277 0 0 1 7.69136,7.719048"
             transform="rotate(76.470218)" /><path
             style="fill:none;stroke:#ffffff;stroke-width:1.05833;stroke-linecap:round;stroke-linejoin:miter;stroke-dasharray:none;stroke-opacity:1"
             d="m 30.906835,530.87689 h 9.822044"
             id="path4701" /><path
             style="fill:none;stroke:#ffffff;stroke-width:1.0509;stroke-linecap:butt;stroke-linejoin:miter;stroke-dasharray:none;stroke-opacity:1"
             d="m 33.512142,530.81436 v 7.07902"
             id="path4703"
             sodipodi:nodetypes="cc" /><path
             style="fill:none;stroke:#ffffff;stroke-width:1.05221;stroke-linecap:butt;stroke-linejoin:miter;stroke-dasharray:none;stroke-opacity:1"
             d="m 37.872468,530.87689 v 6.99737"
             id="path4705" /></g><path
           style="fill:#ffffff;fill-opacity:1;stroke:#000000;stroke-width:0.0330358;stroke-linecap:butt;stroke-linejoin:miter;stroke-dasharray:none;stroke-opacity:1"
           d="m 36.469697,531.12724 c 0,0 0.423076,-0.0342 0.21609,-0.57366 l -0.220877,0.0889"
           id="path4707"
           sodipodi:nodetypes="cc" /><path
           style="fill:#ffffff;fill-opacity:1;stroke:#000000;stroke-width:0.0330358;stroke-linecap:butt;stroke-linejoin:miter;stroke-dasharray:none;stroke-opacity:1"
           d="m 36.225074,531.12095 c 0,0 0.458472,0.22012 0.2486,-0.47957 l -0.231267,0.0679"
           id="path4709"
           sodipodi:nodetypes="cc" /><path
           style="fill:#ffffff;fill-opacity:1;stroke:#000000;stroke-width:0.0330358;stroke-linecap:butt;stroke-linejoin:miter;stroke-dasharray:none;stroke-opacity:1"
           d="m 36.242808,530.71037 c 0.119702,0.41248 -0.11182,0.44821 -0.11182,0.44821 -0.20679,0.0314 -0.200699,-0.35124 -0.200699,-0.35124 z"
           id="path4711"
           sodipodi:nodetypes="ccc" /><path
           style="fill:#ffffff;fill-opacity:1;stroke:#000000;stroke-width:0.0330358;stroke-linecap:butt;stroke-linejoin:miter;stroke-dasharray:none;stroke-opacity:1"
           d="m 34.594301,531.07704 c -0.357578,0.0188 -0.238354,-0.53601 -0.238354,-0.53601 l 0.217715,0.094"
           id="path4713"
           sodipodi:nodetypes="cc" /><path
           style="fill:#ffffff;fill-opacity:1;stroke:#000000;stroke-width:0.0330358;stroke-linecap:butt;stroke-linejoin:miter;stroke-dasharray:none;stroke-opacity:1"
           d="m 34.870268,531.09587 c -0.466365,0.17221 -0.299917,-0.47445 -0.299917,-0.47445 l 0.248059,0.073"
           id="path4715"
           sodipodi:nodetypes="cc" /><path
           style="fill:#ffffff;fill-opacity:1;stroke:#000000;stroke-width:0.0330358;stroke-linecap:butt;stroke-linejoin:miter;stroke-dasharray:none;stroke-opacity:1"
           d="m 35.114947,530.79479 c 0.01876,0.28222 -0.119229,0.34499 -0.119229,0.34499 -0.276014,0.0188 -0.181895,-0.46649 -0.181895,-0.46649 z"
           id="path4717"
           sodipodi:nodetypes="ccc" /><path
           style="fill:#ffffff;stroke:#000000;stroke-width:0.142335;stroke-linecap:butt;stroke-linejoin:miter;stroke-dasharray:none;stroke-opacity:1"
           d="m 33.867028,523.62635 c 0,0 2.181693,-1.06234 3.858476,0.0596 0,0 1.783675,2.58648 1.029793,2.56583 0,0 0.34275,1.55513 -2.333677,1.59344 0,0 -3.077328,0.25699 -3.745445,-1.28588 0,0 -0.399755,0.0709 -0.112407,-0.75492 0,0 0.409414,-1.3127 1.30326,-2.17808 z"
           id="path4719" /><path
           style="fill:#000000;fill-opacity:1;stroke:none;stroke-width:0.157837;stroke-linecap:round;stroke-linejoin:miter;stroke-dasharray:none;stroke-opacity:1"
           d="m 36.149406,524.05589 c 0,0 0.284717,-0.73255 1.630927,-0.42445 0,0 0.660606,-0.0321 1.025327,-0.28965 0,0 0.284839,0.44865 -0.237269,0.61201 0,0 0.185569,0.0572 0.316203,0.003 0,0 -0.125307,0.56636 -0.654702,0.46923 0,0 -1.260198,-0.60504 -2.080486,-0.36961 z"
           id="path4721" /><path
           style="fill:#000000;fill-opacity:1;stroke:none;stroke-width:0.157837;stroke-linecap:round;stroke-linejoin:miter;stroke-dasharray:none;stroke-opacity:1"
           d="m 35.627712,524.07979 c 0,0 -0.366234,-0.88396 -1.717073,-0.59685 0,0 -0.660028,-0.0423 -1.020707,-0.30556 0,0 -0.291778,0.44416 0.227732,0.61561 0,0 -0.18644,0.0543 -0.316216,-0.003 0,0 0.116494,0.56825 0.647333,0.47937 0,0 0.936378,-0.58476 2.178931,-0.19011 z"
           id="path4723"
           sodipodi:nodetypes="cccccccc" /><path
           style="fill:none;stroke:#5841b9;stroke-width:0.214926;stroke-linecap:round;stroke-linejoin:round;stroke-dasharray:none;stroke-opacity:1"
           id="path4725"
           sodipodi:type="arc"
           sodipodi:cx="99.56604"
           sodipodi:cy="520.4314"
           sodipodi:rx="1.2613469"
           sodipodi:ry="1.5097325"
           sodipodi:start="0"
           sodipodi:end="6.2697149"
           sodipodi:open="true"
           sodipodi:arc-type="arc"
           d="m 100.82739,520.4314 a 1.2613469,1.5097325 0 0 1 -1.257102,1.50972 1.2613469,1.5097325 0 0 1 -1.265566,-1.49956 1.2613469,1.5097325 0 0 1 1.248575,-1.51982 1.2613469,1.5097325 0 0 1 1.273973,1.48932"
           transform="matrix(0.99574921,0.092106,-0.12438045,0.9922346,0,0)" /><path
           style="fill:none;stroke:#5841b9;stroke-width:0.214925;stroke-linecap:round;stroke-linejoin:round;stroke-dasharray:none;stroke-opacity:1"
           id="path4727"
           sodipodi:type="arc"
           sodipodi:cx="103.40667"
           sodipodi:cy="520.50201"
           sodipodi:rx="1.2612987"
           sodipodi:ry="1.482013"
           sodipodi:start="0"
           sodipodi:end="6.2697149"
           sodipodi:open="true"
           sodipodi:arc-type="arc"
           d="m 104.66797,520.50201 a 1.2612987,1.482013 0 0 1 -1.25705,1.48201 1.2612987,1.482013 0 0 1 -1.26552,-1.47202 1.2612987,1.482013 0 0 1 1.24853,-1.49192 1.2612987,1.482013 0 0 1 1.27392,1.46197"
           transform="matrix(0.99589285,0.09053969,-0.12657149,0.99195749,0,0)" /><path
           sodipodi:type="star"
           style="fill:#000000;stroke:#000000;stroke-width:9.56598;stroke-linecap:round;stroke-linejoin:round;stroke-dasharray:none;stroke-opacity:1"
           id="path4729"
           inkscape:flatsided="true"
           sodipodi:sides="3"
           sodipodi:cx="-30.308365"
           sodipodi:cy="449.76114"
           sodipodi:r1="52.764309"
           sodipodi:r2="26.382156"
           sodipodi:arg1="1.5566129"
           sodipodi:arg2="2.6038104"
           inkscape:rounded="0.21"
           inkscape:randomized="0"
           d="m -29.560011,502.52014 c -19.190067,0.2722 -56.172469,-61.73522 -46.813166,-78.49041 9.359302,-16.75518 81.5505062,-17.77917 91.381271,-1.29619 9.830765,16.48299 -25.378038,79.5144 -44.568105,79.7866 z"
           inkscape:transform-center-x="0.04622335"
           inkscape:transform-center-y="1.5896547"
           transform="matrix(0.00729417,5.6740402e-5,-5.6740402e-5,0.00729417,35.954993,522.98624)" /><path
           sodipodi:type="star"
           style="fill:#5841b9;fill-opacity:1;stroke:#5841b9;stroke-width:0.264583;stroke-linecap:round;stroke-linejoin:round;stroke-dasharray:none;stroke-opacity:1"
           id="path4731"
           inkscape:flatsided="true"
           sodipodi:sides="4"
           sodipodi:cx="165.16614"
           sodipodi:cy="170.65625"
           sodipodi:r1="3.7911432"
           sodipodi:r2="1.9207934"
           sodipodi:arg1="2.3191743"
           sodipodi:arg2="3.1045725"
           inkscape:rounded="0.21"
           inkscape:randomized="0"
           d="m 162.58645,173.43438 c -0.82506,-0.76613 -0.96457,-4.53276 -0.19844,-5.35782 0.76613,-0.82506 4.53275,-0.96456 5.35782,-0.19844 0.82506,0.76613 0.96456,4.53276 0.19843,5.35782 -0.76613,0.82506 -4.53275,0.96456 -5.35781,0.19844 z"
           inkscape:transform-center-x="0.018840001"
           inkscape:transform-center-y="0.1349467"
           transform="matrix(0.09742765,7.5787736e-4,-7.7865605e-4,0.10009879,16.953411,508.27691)" /><path
           sodipodi:type="star"
           style="fill:#5841b9;fill-opacity:1;stroke:#5841b9;stroke-width:0.264583;stroke-linecap:round;stroke-linejoin:round;stroke-dasharray:none;stroke-opacity:1"
           id="path4733"
           inkscape:flatsided="true"
           sodipodi:sides="4"
           sodipodi:cx="165.16614"
           sodipodi:cy="170.65625"
           sodipodi:r1="3.7911432"
           sodipodi:r2="1.9207934"
           sodipodi:arg1="2.3191743"
           sodipodi:arg2="3.1045725"
           inkscape:rounded="0.21"
           inkscape:randomized="0"
           d="m 162.58645,173.43438 c -0.82506,-0.76613 -0.96457,-4.53276 -0.19844,-5.35782 0.76613,-0.82506 4.53275,-0.96456 5.35782,-0.19844 0.82506,0.76613 0.96456,4.53276 0.19843,5.35782 -0.76613,0.82506 -4.53275,0.96456 -5.35781,0.19844 z"
           inkscape:transform-center-x="0.018853684"
           inkscape:transform-center-y="0.13495518"
           transform="matrix(0.09742765,7.5787736e-4,-7.7865605e-4,0.10009879,22.634731,508.19899)" /><path
           style="fill:#ffffff;stroke:#000000;stroke-width:0.0618508;stroke-linecap:round;stroke-linejoin:round;stroke-dasharray:none;stroke-opacity:1"
           id="path4735"
           sodipodi:type="arc"
           sodipodi:cx="87.22094"
           sodipodi:cy="522.56989"
           sodipodi:rx="0.8755179"
           sodipodi:ry="0.96445119"
           sodipodi:start="0"
           sodipodi:end="6.2765564"
           sodipodi:arc-type="arc"
           d="m 88.096458,522.56989 a 0.8755179,0.96445119 0 0 1 -0.874067,0.96445 0.8755179,0.96445119 0 0 1 -0.876964,-0.96126 0.8755179,0.96445119 0 0 1 0.87116,-0.96763 0.8755179,0.96445119 0 0 1 0.879851,0.95804"
           sodipodi:open="true"
           transform="matrix(0.99793252,0.06427038,-0.10069912,0.99491692,0,0)" /><path
           style="fill:#ffffff;stroke:#000000;stroke-width:0.061861;stroke-linecap:round;stroke-linejoin:round;stroke-dasharray:none;stroke-opacity:1"
           id="path4737"
           sodipodi:type="arc"
           sodipodi:cx="42.50106"
           sodipodi:cy="525.22864"
           sodipodi:rx="0.87642407"
           sodipodi:ry="0.96315861"
           sodipodi:start="0"
           sodipodi:end="6.2765564"
           sodipodi:arc-type="arc"
           d="m 43.377485,525.22864 a 0.87642407,0.96315861 0 0 1 -0.874972,0.96315 0.87642407,0.96315861 0 0 1 -0.877872,-0.95996 0.87642407,0.96315861 0 0 1 0.872062,-0.96634 0.87642407,0.96315861 0 0 1 0.880762,0.95676"
           sodipodi:open="true"
           transform="matrix(0.99995633,0.00934564,-0.01036169,0.99994632,0,0)" /><path
           style="fill:#000000;stroke:#000000;stroke-width:0.0697781;stroke-linecap:round;stroke-linejoin:round;stroke-dasharray:none;stroke-opacity:1"
           id="path4739"
           sodipodi:type="arc"
           sodipodi:cx="59.80188"
           sodipodi:cy="523.2287"
           sodipodi:rx="0.23595111"
           sodipodi:ry="0.42072669"
           sodipodi:start="0"
           sodipodi:end="6.2697149"
           sodipodi:arc-type="arc"
           d="m 60.037831,523.2287 a 0.23595111,0.42072669 0 0 1 -0.235157,0.42072 0.23595111,0.42072669 0 0 1 -0.23674,-0.41789 0.23595111,0.42072669 0 0 1 0.233562,-0.42354 0.23595111,0.42072669 0 0 1 0.238314,0.41504"
           sodipodi:open="true"
           transform="rotate(2.7711422)" /><path
           style="fill:#f2f2f2;stroke:none;stroke-width:0.0697781;stroke-linecap:round;stroke-linejoin:round;stroke-dasharray:none;stroke-opacity:1"
           id="path4741"
           sodipodi:type="arc"
           sodipodi:cx="59.685715"
           sodipodi:cy="523.0553"
           sodipodi:rx="0.06391117"
           sodipodi:ry="0.11396061"
           sodipodi:start="0"
           sodipodi:end="6.2697149"
           sodipodi:arc-type="arc"
           d="m 59.749626,523.0553 a 0.06391117,0.11396061 0 0 1 -0.0637,0.11396 0.06391117,0.11396061 0 0 1 -0.06412,-0.11319 0.06391117,0.11396061 0 0 1 0.06326,-0.11473 0.06391117,0.11396061 0 0 1 0.06455,0.11242"
           sodipodi:open="true"
           transform="rotate(2.7711422)" /><path
           style="fill:#000000;stroke:#000000;stroke-width:0.0697781;stroke-linecap:round;stroke-linejoin:round;stroke-dasharray:none;stroke-opacity:1"
           id="path4743"
           sodipodi:type="arc"
           sodipodi:cx="62.43309"
           sodipodi:cy="523.19788"
           sodipodi:rx="0.23595111"
           sodipodi:ry="0.42072669"
           sodipodi:start="0"
           sodipodi:end="6.2697149"
           sodipodi:arc-type="arc"
           d="m 62.669041,523.19788 a 0.23595111,0.42072669 0 0 1 -0.235156,0.42072 0.23595111,0.42072669 0 0 1 -0.236741,-0.41789 0.23595111,0.42072669 0 0 1 0.233562,-0.42354 0.23595111,0.42072669 0 0 1 0.238314,0.41504"
           sodipodi:open="true"
           transform="rotate(2.7711422)" /><path
           style="fill:#f2f2f2;stroke:none;stroke-width:0.0697781;stroke-linecap:round;stroke-linejoin:round;stroke-dasharray:none;stroke-opacity:1"
           id="path4745"
           sodipodi:type="arc"
           sodipodi:cx="62.316902"
           sodipodi:cy="523.02448"
           sodipodi:rx="0.06391117"
           sodipodi:ry="0.11396061"
           sodipodi:start="0"
           sodipodi:end="6.2697149"
           sodipodi:arc-type="arc"
           d="m 62.380813,523.02448 a 0.06391117,0.11396061 0 0 1 -0.0637,0.11396 0.06391117,0.11396061 0 0 1 -0.06413,-0.1132 0.06391117,0.11396061 0 0 1 0.06326,-0.11472 0.06391117,0.11396061 0 0 1 0.06455,0.11242"
           sodipodi:open="true"
           transform="rotate(2.7711422)" /><path
           style="fill:#f2f2f2;stroke:none;stroke-width:0.0697781;stroke-linecap:round;stroke-linejoin:round;stroke-dasharray:none;stroke-opacity:1"
           id="path4747"
           sodipodi:type="arc"
           sodipodi:cx="61.01136"
           sodipodi:cy="523.867"
           sodipodi:rx="0.083438352"
           sodipodi:ry="0.14877976"
           sodipodi:start="0"
           sodipodi:end="6.2697149"
           sodipodi:arc-type="arc"
           d="m 61.094799,523.867 a 0.08343835,0.14877976 0 0 1 -0.08316,0.14878 0.08343835,0.14877976 0 0 1 -0.08372,-0.14777 0.08343835,0.14877976 0 0 1 0.08259,-0.14978 0.08343835,0.14877976 0 0 1 0.08427,0.14677"
           sodipodi:open="true"
           transform="rotate(2.7711422)" /><path
           style="fill:#000000;fill-opacity:1;stroke:#000000;stroke-width:0.0739269;stroke-linecap:butt;stroke-linejoin:miter;stroke-dasharray:none;stroke-opacity:1"
           d="m 33.395316,527.39754 c 0,0 -0.992841,2.29378 -0.194221,1.84839 0,0 -0.256432,0.31631 0.439952,0.7164 0.183497,0.41933 1.737629,1.55031 3.900936,0.1843 0,0 0.476104,-0.24574 0.445387,-0.73719 0,0 0.592896,0.11651 -0.06143,-1.76618 0,0 -2.226919,0.55289 -4.53062,-0.24572 z"
           id="path4749"
           sodipodi:nodetypes="ccccccc" /><path
           style="fill:#ffffff;fill-opacity:1;stroke:none;stroke-width:0.0739269;stroke-linecap:butt;stroke-linejoin:miter;stroke-dasharray:none;stroke-opacity:1"
           d="m 34.117164,528.84119 c -1.029006,0.39931 -0.0869,-1.15449 -0.0869,-1.15449 0,0 1.708467,0.36092 3.052292,0.16895 0,0 0.851056,1.24663 0.0217,1.05466 0,0 0.330201,1.10578 -0.245726,1.52812 0,0 -1.42062,0.65272 -2.703013,-0.0768 -0.192,-0.31464 -0.457672,-0.49123 -0.03838,-1.52045 z"
           id="path4751"
           sodipodi:nodetypes="cccccccc" /></g></g></g></svg>
