<?xml version="1.0" encoding="UTF-8" standalone="no"?>
<!-- Created with Inkscape (http://www.inkscape.org/) -->

<svg
   width="67.316597"
   height="65.758339"
   viewBox="0 0 17.810849 17.39856"
   version="1.1"
   id="svg5"
   inkscape:version="1.2 (dc2aedaf03, 2022-05-15)"
   sodipodi:docname="TTO LOGO.svg"
   xml:space="preserve"
   xmlns:inkscape="http://www.inkscape.org/namespaces/inkscape"
   xmlns:sodipodi="http://sodipodi.sourceforge.net/DTD/sodipodi-0.dtd"
   xmlns="http://www.w3.org/2000/svg"
   xmlns:svg="http://www.w3.org/2000/svg"><sodipodi:namedview
     id="namedview7"
     pagecolor="#ffffff"
     bordercolor="#ffffff"
     borderopacity="1"
     inkscape:showpageshadow="0"
     inkscape:pageopacity="0"
     inkscape:pagecheckerboard="false"
     inkscape:deskcolor="#ffffff"
     inkscape:document-units="px"
     showgrid="false"
     showborder="false"
     inkscape:zoom="2.0056521"
     inkscape:cx="403.85868"
     inkscape:cy="2047.4638"
     inkscape:window-width="1600"
     inkscape:window-height="837"
     inkscape:window-x="-8"
     inkscape:window-y="-8"
     inkscape:window-maximized="1"
     inkscape:current-layer="layer1"
     showguides="true" /><defs
     id="defs2" /><g
     inkscape:label="Layer 1"
     inkscape:groupmode="layer"
     id="layer1"
     transform="translate(-58.026433,-582.93511)"><g
       id="g1453"
       inkscape:export-filename="g1453.svg"
       inkscape:export-xdpi="504.677"
       inkscape:export-ydpi="504.677"><path
         style="fill:none;fill-opacity:1;stroke:#5841b9;stroke-width:1.05833;stroke-linecap:butt;stroke-linejoin:round;stroke-dasharray:none;stroke-opacity:1"
         id="path683"
         sodipodi:type="arc"
         sodipodi:cx="591.07434"
         sodipodi:cy="73.387054"
         sodipodi:rx="8.3757277"
         sodipodi:ry="8.3757277"
         sodipodi:start="0.54188799"
         sodipodi:end="6.2078264"
         sodipodi:open="true"
         sodipodi:arc-type="arc"
         d="m 598.25013,77.706873 a 8.3757277,8.3757277 0 0 1 -10.34136,3.434663 8.3757277,8.3757277 0 0 1 -4.98332,-9.690572 8.3757277,8.3757277 0 0 1 8.80949,-6.413546 8.3757277,8.3757277 0 0 1 7.69136,7.719048"
         transform="rotate(76.470218)" /><path
         style="fill:none;stroke:#5841b9;stroke-width:1.05833;stroke-linecap:round;stroke-linejoin:miter;stroke-dasharray:none;stroke-opacity:1"
         d="m 62.171604,593.31722 h 9.822044"
         id="path685" /><path
         style="fill:none;stroke:#5841b9;stroke-width:1.0509;stroke-linecap:butt;stroke-linejoin:miter;stroke-dasharray:none;stroke-opacity:1"
         d="m 64.776911,593.25469 v 7.07902"
         id="path687"
         sodipodi:nodetypes="cc" /><path
         style="fill:none;stroke:#5841b9;stroke-width:1.05221;stroke-linecap:butt;stroke-linejoin:miter;stroke-dasharray:none;stroke-opacity:1"
         d="m 69.137237,593.31722 v 6.99737"
         id="path689" /><path
         style="fill:#ffffff;fill-opacity:1;stroke:#000000;stroke-width:0.0330358;stroke-linecap:butt;stroke-linejoin:miter;stroke-dasharray:none;stroke-opacity:1"
         d="m 67.734466,593.56757 c 0,0 0.423076,-0.0342 0.21609,-0.57366 l -0.220877,0.0889"
         id="path693"
         sodipodi:nodetypes="cc" /><path
         style="fill:#ffffff;fill-opacity:1;stroke:#000000;stroke-width:0.0330358;stroke-linecap:butt;stroke-linejoin:miter;stroke-dasharray:none;stroke-opacity:1"
         d="m 67.489843,593.56128 c 0,0 0.458472,0.22012 0.2486,-0.47957 l -0.231267,0.0679"
         id="path695"
         sodipodi:nodetypes="cc" /><path
         style="fill:#ffffff;fill-opacity:1;stroke:#000000;stroke-width:0.0330358;stroke-linecap:butt;stroke-linejoin:miter;stroke-dasharray:none;stroke-opacity:1"
         d="m 67.507577,593.1507 c 0.119702,0.41248 -0.11182,0.44821 -0.11182,0.44821 -0.20679,0.0314 -0.200699,-0.35124 -0.200699,-0.35124 z"
         id="path697"
         sodipodi:nodetypes="ccc" /><path
         style="fill:#ffffff;fill-opacity:1;stroke:#000000;stroke-width:0.0330358;stroke-linecap:butt;stroke-linejoin:miter;stroke-dasharray:none;stroke-opacity:1"
         d="m 65.85907,593.51737 c -0.357578,0.0188 -0.238354,-0.53601 -0.238354,-0.53601 l 0.217715,0.094"
         id="path699"
         sodipodi:nodetypes="cc" /><path
         style="fill:#ffffff;fill-opacity:1;stroke:#000000;stroke-width:0.0330358;stroke-linecap:butt;stroke-linejoin:miter;stroke-dasharray:none;stroke-opacity:1"
         d="m 66.135037,593.5362 c -0.466365,0.17221 -0.299917,-0.47445 -0.299917,-0.47445 l 0.248059,0.073"
         id="path701"
         sodipodi:nodetypes="cc" /><path
         style="fill:#ffffff;fill-opacity:1;stroke:#000000;stroke-width:0.0330358;stroke-linecap:butt;stroke-linejoin:miter;stroke-dasharray:none;stroke-opacity:1"
         d="m 66.379716,593.23512 c 0.01876,0.28222 -0.119229,0.34499 -0.119229,0.34499 -0.276014,0.0188 -0.181895,-0.46649 -0.181895,-0.46649 z"
         id="path703"
         sodipodi:nodetypes="ccc" /><path
         style="fill:#ffffff;stroke:#000000;stroke-width:0.142335;stroke-linecap:butt;stroke-linejoin:miter;stroke-dasharray:none;stroke-opacity:1"
         d="m 65.131797,586.06668 c 0,0 2.181693,-1.06234 3.858476,0.0596 0,0 1.783675,2.58648 1.029793,2.56583 0,0 0.34275,1.55513 -2.333677,1.59344 0,0 -3.077328,0.25699 -3.745445,-1.28588 0,0 -0.399755,0.0709 -0.112407,-0.75492 0,0 0.409414,-1.3127 1.30326,-2.17808 z"
         id="path705" /><path
         style="fill:#000000;fill-opacity:1;stroke:none;stroke-width:0.157837;stroke-linecap:round;stroke-linejoin:miter;stroke-dasharray:none;stroke-opacity:1"
         d="m 67.414175,586.49622 c 0,0 0.284717,-0.73255 1.630927,-0.42445 0,0 0.660606,-0.0321 1.025327,-0.28965 0,0 0.284839,0.44865 -0.237269,0.61201 0,0 0.185569,0.0572 0.316203,0.003 0,0 -0.125307,0.56636 -0.654702,0.46923 0,0 -1.260198,-0.60504 -2.080486,-0.36961 z"
         id="path707" /><path
         style="fill:#000000;fill-opacity:1;stroke:none;stroke-width:0.157837;stroke-linecap:round;stroke-linejoin:miter;stroke-dasharray:none;stroke-opacity:1"
         d="m 66.892481,586.52012 c 0,0 -0.366234,-0.88396 -1.717073,-0.59685 0,0 -0.660028,-0.0423 -1.020707,-0.30556 0,0 -0.291778,0.44416 0.227732,0.61561 0,0 -0.18644,0.0543 -0.316216,-0.003 0,0 0.116494,0.56825 0.647333,0.47937 0,0 0.936378,-0.58476 2.178931,-0.19011 z"
         id="path709"
         sodipodi:nodetypes="cccccccc" /><path
         style="fill:none;stroke:#5841b9;stroke-width:0.214926;stroke-linecap:round;stroke-linejoin:round;stroke-dasharray:none;stroke-opacity:1"
         id="path711"
         sodipodi:type="arc"
         sodipodi:cx="138.37483"
         sodipodi:cy="579.75787"
         sodipodi:rx="1.2613469"
         sodipodi:ry="1.5097325"
         sodipodi:start="0"
         sodipodi:end="6.2697149"
         sodipodi:open="true"
         sodipodi:arc-type="arc"
         d="m 139.63618,579.75787 a 1.2613469,1.5097325 0 0 1 -1.2571,1.50973 1.2613469,1.5097325 0 0 1 -1.26557,-1.49956 1.2613469,1.5097325 0 0 1 1.24858,-1.51982 1.2613469,1.5097325 0 0 1 1.27397,1.48932"
         transform="matrix(0.99574921,0.092106,-0.12438045,0.9922346,0,0)" /><path
         style="fill:none;stroke:#5841b9;stroke-width:0.214925;stroke-linecap:round;stroke-linejoin:round;stroke-dasharray:none;stroke-opacity:1"
         id="path713"
         sodipodi:type="arc"
         sodipodi:cx="142.34874"
         sodipodi:cy="579.89423"
         sodipodi:rx="1.2612987"
         sodipodi:ry="1.482013"
         sodipodi:start="0"
         sodipodi:end="6.2697149"
         sodipodi:open="true"
         sodipodi:arc-type="arc"
         d="m 143.61004,579.89423 a 1.2612987,1.482013 0 0 1 -1.25705,1.482 1.2612987,1.482013 0 0 1 -1.26552,-1.47202 1.2612987,1.482013 0 0 1 1.24853,-1.49192 1.2612987,1.482013 0 0 1 1.27392,1.46197"
         transform="matrix(0.99589285,0.09053969,-0.12657149,0.99195749,0,0)" /><path
         sodipodi:type="star"
         style="fill:#000000;stroke:#000000;stroke-width:9.56598;stroke-linecap:round;stroke-linejoin:round;stroke-dasharray:none;stroke-opacity:1"
         id="path715"
         inkscape:flatsided="true"
         sodipodi:sides="3"
         sodipodi:cx="-30.308365"
         sodipodi:cy="449.76114"
         sodipodi:r1="52.764309"
         sodipodi:r2="26.382156"
         sodipodi:arg1="1.5566129"
         sodipodi:arg2="2.6038104"
         inkscape:rounded="0.21"
         inkscape:randomized="0"
         d="m -29.560011,502.52014 c -19.190067,0.2722 -56.172469,-61.73522 -46.813166,-78.49041 9.359302,-16.75518 81.5505062,-17.77917 91.381271,-1.29619 9.830765,16.48299 -25.378038,79.5144 -44.568105,79.7866 z"
         inkscape:transform-center-x="0.04622335"
         inkscape:transform-center-y="1.5896547"
         transform="matrix(0.00729417,5.6740402e-5,-5.6740402e-5,0.00729417,67.219762,585.42657)" /><path
         sodipodi:type="star"
         style="fill:#5841b9;fill-opacity:1;stroke:#5841b9;stroke-width:0.264583;stroke-linecap:round;stroke-linejoin:round;stroke-dasharray:none;stroke-opacity:1"
         id="path717"
         inkscape:flatsided="true"
         sodipodi:sides="4"
         sodipodi:cx="165.16614"
         sodipodi:cy="170.65625"
         sodipodi:r1="3.7911432"
         sodipodi:r2="1.9207934"
         sodipodi:arg1="2.3191743"
         sodipodi:arg2="3.1045725"
         inkscape:rounded="0.21"
         inkscape:randomized="0"
         d="m 162.58645,173.43438 c -0.82506,-0.76613 -0.96457,-4.53276 -0.19844,-5.35782 0.76613,-0.82506 4.53275,-0.96456 5.35782,-0.19844 0.82506,0.76613 0.96456,4.53276 0.19843,5.35782 -0.76613,0.82506 -4.53275,0.96456 -5.35781,0.19844 z"
         inkscape:transform-center-x="0.018840001"
         inkscape:transform-center-y="0.1349467"
         transform="matrix(0.09742765,7.5787736e-4,-7.7865605e-4,0.10009879,48.21818,570.71724)" /><path
         sodipodi:type="star"
         style="fill:#5841b9;fill-opacity:1;stroke:#5841b9;stroke-width:0.264583;stroke-linecap:round;stroke-linejoin:round;stroke-dasharray:none;stroke-opacity:1"
         id="path719"
         inkscape:flatsided="true"
         sodipodi:sides="4"
         sodipodi:cx="165.16614"
         sodipodi:cy="170.65625"
         sodipodi:r1="3.7911432"
         sodipodi:r2="1.9207934"
         sodipodi:arg1="2.3191743"
         sodipodi:arg2="3.1045725"
         inkscape:rounded="0.21"
         inkscape:randomized="0"
         d="m 162.58645,173.43438 c -0.82506,-0.76613 -0.96457,-4.53276 -0.19844,-5.35782 0.76613,-0.82506 4.53275,-0.96456 5.35782,-0.19844 0.82506,0.76613 0.96456,4.53276 0.19843,5.35782 -0.76613,0.82506 -4.53275,0.96456 -5.35781,0.19844 z"
         inkscape:transform-center-x="0.018853684"
         inkscape:transform-center-y="0.13495518"
         transform="matrix(0.09742765,7.5787736e-4,-7.7865605e-4,0.10009879,53.8995,570.63932)" /><path
         style="fill:#ffffff;stroke:#000000;stroke-width:0.0618508;stroke-linecap:round;stroke-linejoin:round;stroke-dasharray:none;stroke-opacity:1"
         id="path721"
         sodipodi:type="arc"
         sodipodi:cx="124.63947"
         sodipodi:cy="582.91205"
         sodipodi:rx="0.8755179"
         sodipodi:ry="0.96445119"
         sodipodi:start="0"
         sodipodi:end="6.2765564"
         sodipodi:arc-type="arc"
         d="m 125.51499,582.91205 a 0.8755179,0.96445119 0 0 1 -0.87407,0.96445 0.8755179,0.96445119 0 0 1 -0.87696,-0.96126 0.8755179,0.96445119 0 0 1 0.87116,-0.96763 0.8755179,0.96445119 0 0 1 0.87985,0.95805"
         sodipodi:open="true"
         transform="matrix(0.99793252,0.06427038,-0.10069912,0.99491692,0,0)" /><path
         style="fill:#ffffff;stroke:#000000;stroke-width:0.061861;stroke-linecap:round;stroke-linejoin:round;stroke-dasharray:none;stroke-opacity:1"
         id="path723"
         sodipodi:type="arc"
         sodipodi:cx="74.411156"
         sodipodi:cy="587.37408"
         sodipodi:rx="0.87642407"
         sodipodi:ry="0.96315861"
         sodipodi:start="0"
         sodipodi:end="6.2765564"
         sodipodi:arc-type="arc"
         d="m 75.28758,587.37408 a 0.87642407,0.96315861 0 0 1 -0.874972,0.96316 0.87642407,0.96315861 0 0 1 -0.877872,-0.95996 0.87642407,0.96315861 0 0 1 0.872062,-0.96634 0.87642407,0.96315861 0 0 1 0.880763,0.95676"
         sodipodi:open="true"
         transform="matrix(0.99995633,0.00934564,-0.01036169,0.99994632,0,0)" /><path
         style="fill:#000000;stroke:#000000;stroke-width:0.0697781;stroke-linecap:round;stroke-linejoin:round;stroke-dasharray:none;stroke-opacity:1"
         id="path725"
         sodipodi:type="arc"
         sodipodi:cx="94.048874"
         sodipodi:cy="584.08447"
         sodipodi:rx="0.23595111"
         sodipodi:ry="0.42072669"
         sodipodi:start="0"
         sodipodi:end="6.2697149"
         sodipodi:arc-type="arc"
         d="m 94.284825,584.08447 a 0.23595111,0.42072669 0 0 1 -0.235157,0.42073 0.23595111,0.42072669 0 0 1 -0.23674,-0.41789 0.23595111,0.42072669 0 0 1 0.233562,-0.42354 0.23595111,0.42072669 0 0 1 0.238314,0.41504"
         sodipodi:open="true"
         transform="rotate(2.7711422)" /><path
         style="fill:#f2f2f2;stroke:none;stroke-width:0.0697781;stroke-linecap:round;stroke-linejoin:round;stroke-dasharray:none;stroke-opacity:1"
         id="path727"
         sodipodi:type="arc"
         sodipodi:cx="93.932709"
         sodipodi:cy="583.91107"
         sodipodi:rx="0.06391117"
         sodipodi:ry="0.11396061"
         sodipodi:start="0"
         sodipodi:end="6.2697149"
         sodipodi:arc-type="arc"
         d="m 93.99662,583.91107 a 0.06391117,0.11396061 0 0 1 -0.0637,0.11396 0.06391117,0.11396061 0 0 1 -0.06413,-0.11319 0.06391117,0.11396061 0 0 1 0.06326,-0.11472 0.06391117,0.11396061 0 0 1 0.06455,0.11242"
         sodipodi:open="true"
         transform="rotate(2.7711422)" /><path
         style="fill:#000000;stroke:#000000;stroke-width:0.0697781;stroke-linecap:round;stroke-linejoin:round;stroke-dasharray:none;stroke-opacity:1"
         id="path729"
         sodipodi:type="arc"
         sodipodi:cx="96.680084"
         sodipodi:cy="584.05365"
         sodipodi:rx="0.23595111"
         sodipodi:ry="0.42072669"
         sodipodi:start="0"
         sodipodi:end="6.2697149"
         sodipodi:arc-type="arc"
         d="m 96.916035,584.05365 a 0.23595111,0.42072669 0 0 1 -0.235156,0.42072 0.23595111,0.42072669 0 0 1 -0.236741,-0.41789 0.23595111,0.42072669 0 0 1 0.233563,-0.42354 0.23595111,0.42072669 0 0 1 0.238313,0.41504"
         sodipodi:open="true"
         transform="rotate(2.7711422)" /><path
         style="fill:#f2f2f2;stroke:none;stroke-width:0.0697781;stroke-linecap:round;stroke-linejoin:round;stroke-dasharray:none;stroke-opacity:1"
         id="path731"
         sodipodi:type="arc"
         sodipodi:cx="96.563896"
         sodipodi:cy="583.88025"
         sodipodi:rx="0.06391117"
         sodipodi:ry="0.11396061"
         sodipodi:start="0"
         sodipodi:end="6.2697149"
         sodipodi:arc-type="arc"
         d="m 96.627807,583.88025 a 0.06391117,0.11396061 0 0 1 -0.0637,0.11396 0.06391117,0.11396061 0 0 1 -0.06412,-0.11319 0.06391117,0.11396061 0 0 1 0.06326,-0.11473 0.06391117,0.11396061 0 0 1 0.06455,0.11242"
         sodipodi:open="true"
         transform="rotate(2.7711422)" /><path
         style="fill:#f2f2f2;stroke:none;stroke-width:0.0697781;stroke-linecap:round;stroke-linejoin:round;stroke-dasharray:none;stroke-opacity:1"
         id="path733"
         sodipodi:type="arc"
         sodipodi:cx="95.258354"
         sodipodi:cy="584.72278"
         sodipodi:rx="0.083438352"
         sodipodi:ry="0.14877976"
         sodipodi:start="0"
         sodipodi:end="6.2697149"
         sodipodi:arc-type="arc"
         d="m 95.341793,584.72278 a 0.08343835,0.14877976 0 0 1 -0.08316,0.14878 0.08343835,0.14877976 0 0 1 -0.08372,-0.14778 0.08343835,0.14877976 0 0 1 0.08259,-0.14977 0.08343835,0.14877976 0 0 1 0.08427,0.14676"
         sodipodi:open="true"
         transform="rotate(2.7711422)" /><path
         style="fill:#000000;fill-opacity:1;stroke:#000000;stroke-width:0.0739269;stroke-linecap:butt;stroke-linejoin:miter;stroke-dasharray:none;stroke-opacity:1"
         d="m 64.660085,589.83787 c 0,0 -0.992841,2.29378 -0.194221,1.84839 0,0 -0.256432,0.31631 0.439952,0.7164 0.183497,0.41933 1.737629,1.55031 3.900936,0.1843 0,0 0.476104,-0.24574 0.445387,-0.73719 0,0 0.592896,0.11651 -0.06143,-1.76618 0,0 -2.226919,0.55289 -4.53062,-0.24572 z"
         id="path735"
         sodipodi:nodetypes="ccccccc" /><path
         style="fill:#ffffff;fill-opacity:1;stroke:none;stroke-width:0.0739269;stroke-linecap:butt;stroke-linejoin:miter;stroke-dasharray:none;stroke-opacity:1"
         d="m 65.381933,591.28152 c -1.029006,0.39931 -0.0869,-1.15449 -0.0869,-1.15449 0,0 1.708467,0.36092 3.052292,0.16895 0,0 0.851056,1.24663 0.0217,1.05466 0,0 0.330201,1.10578 -0.245726,1.52812 0,0 -1.42062,0.65272 -2.703013,-0.0768 -0.192,-0.31464 -0.457672,-0.49123 -0.03838,-1.52045 z"
         id="path737"
         sodipodi:nodetypes="cccccccc" /></g></g></svg>
